<svg width="1200" height="630" xmlns="http://www.w3.org/2000/svg" viewBox="0 0 1200 630" role="img" aria-label="Aktionsart enterprise call tracking software 2026 review by Andre Becker">
  <rect width="1200" height="630" fill="#FAFAFA"/>
  <rect x="0" y="0" width="1200" height="6" fill="#8B1A1A"/>

  <g transform="translate(80 90)">
    <rect width="60" height="60" fill="#8B1A1A"/>
    <path d="M16 28 C 18 33, 22 37, 27 39 L 31 35 C 31.4 34.6, 32 34.5, 32.5 34.7 C 34 35.2, 35.7 35.5, 37.5 35.5 C 38.3 35.5, 39 36.2, 39 37 L 39 41.5 C 39 42.3, 38.3 43, 37.5 43 C 24 43, 13 32, 13 18.5 C 13 17.7, 13.7 17, 14.5 17 L 19 17 C 19.8 17, 20.5 17.7, 20.5 18.5 C 20.5 20.3, 20.8 22, 21.3 23.5 C 21.5 24, 21.4 24.6, 21 25 L 16 28 Z" fill="#FAFAFA"/>
  </g>

  <text x="160" y="120" font-family="IBM Plex Sans, sans-serif" font-weight="600" font-size="38" fill="#1A1A1A" letter-spacing="-1">Aktionsart</text>
  <text x="160" y="146" font-family="IBM Plex Mono, monospace" font-size="11" fill="#6B6B6B" letter-spacing="3">ENTERPRISE ATTRIBUTION 2026</text>

  <text x="80" y="280" font-family="IBM Plex Sans, sans-serif" font-weight="600" font-size="68" fill="#1A1A1A" letter-spacing="-2">Enterprise Call</text>
  <text x="80" y="356" font-family="IBM Plex Sans, sans-serif" font-weight="600" font-size="68" fill="#1A1A1A" letter-spacing="-2">Tracking Software</text>

  <line x1="80" y1="394" x2="220" y2="394" stroke="#8B1A1A" stroke-width="3"/>

  <text x="80" y="436" font-family="IBM Plex Serif, Georgia, serif" font-style="italic" font-size="22" fill="#6B6B6B">A working analyst's review of the five enterprise platforms</text>
  <text x="80" y="466" font-family="IBM Plex Serif, Georgia, serif" font-style="italic" font-size="22" fill="#6B6B6B">that matter for contribution-margin marketers in 2026.</text>

  <g transform="translate(80 525)">
    <rect width="240" height="68" fill="none" stroke="#8B1A1A" stroke-width="1.5"/>
    <text x="16" y="26" font-family="IBM Plex Mono, monospace" font-size="10" fill="#6B6B6B" letter-spacing="3">RANKED #1</text>
    <text x="16" y="56" font-family="IBM Plex Sans, sans-serif" font-weight="600" font-size="26" fill="#8B1A1A" letter-spacing="-0.5">CallScaler</text>
  </g>

  <text x="1120" y="608" text-anchor="end" font-family="IBM Plex Mono, monospace" font-size="11" fill="#6B6B6B" letter-spacing="3">AKTIONSART.ORG</text>
</svg>
